<?xml version="1.0" encoding="utf-8"?>
<!-- Generator: Adobe Illustrator 25.3.1, SVG Export Plug-In . SVG Version: 6.00 Build 0)  -->
<svg version="1.1" id="Camada_1" xmlns="http://www.w3.org/2000/svg" xmlns:xlink="http://www.w3.org/1999/xlink" x="0px" y="0px"
	 viewBox="0 0 1920 454.1" style="enable-background:new 0 0 1920 454.1;" xml:space="preserve">
<style type="text/css">
	.st0{fill:#30373A;}
	.st1{fill:#BA4818;}
	.st2{fill:#ECECEC;}
</style>
<g>
	<g>
		<path class="st2" d="M258.5,220.5H108.2c0.5,13.6,3.9,25.7,10.4,36.3c6.5,10.6,15.2,18.8,26.3,24.6c11,5.8,23.5,8.7,37.3,8.7
			c11.4,0,21.9-2.1,31.6-6.2s17.8-10.2,24.2-18.2l9.7,11c-7.6,9.1-17.1,16.2-28.6,21.1c-11.5,4.9-23.9,7.4-37.3,7.4
			c-17.4,0-32.9-3.8-46.5-11.4c-13.6-7.6-24.2-18.1-32-31.5c-7.7-13.4-11.5-28.7-11.5-45.8c0-16.9,3.6-32.2,10.9-45.7
			c7.2-13.5,17.2-24,29.9-31.6c12.7-7.6,27-11.4,42.8-11.4s30,3.7,42.7,11.2c12.6,7.5,22.5,17.9,29.8,31.3
			c7.2,13.4,10.9,28.6,10.9,45.5L258.5,220.5z M142.4,150.8c-9.8,5.5-17.7,13.2-23.6,23.1c-5.9,9.9-9.3,21.1-10.2,33.6h133.8
			c-0.7-12.5-4-23.6-10-33.5c-6-9.8-13.9-17.5-23.8-23.1c-9.8-5.6-20.9-8.4-33.1-8.4C163.2,142.6,152.2,145.3,142.4,150.8z"/>
		<path class="st2" d="M396.6,144.4c11.6,11,17.4,27.3,17.4,48.7v110.7H398v-31.1c-5.6,10.3-13.7,18.2-24.4,23.9
			c-10.7,5.7-23.5,8.5-38.5,8.5c-19.4,0-34.7-4.6-46-13.7c-11.3-9.1-16.9-21.2-16.9-36.1c0-14.5,5.2-26.3,15.6-35.3
			c10.4-9,26.9-13.6,49.7-13.6h59.9v-14.1c0-16.3-4.4-28.7-13.2-37.1c-8.8-8.5-21.7-12.7-38.6-12.7c-11.6,0-22.7,2-33.3,6
			c-10.6,4-19.6,9.4-26.9,16.1l-8.4-12c8.7-7.8,19.2-13.9,31.5-18.2c12.3-4.4,25.1-6.5,38.5-6.5C368.4,127.8,385,133.4,396.6,144.4z
			 M374.4,281.4c10.1-6.7,17.8-16.4,22.9-29.1v-32.8h-59.5c-17.2,0-29.6,3.1-37.3,9.4c-7.7,6.3-11.5,14.8-11.5,25.8
			c0,11.4,4.2,20.4,12.7,26.9c8.5,6.6,20.4,9.9,35.8,9.9C351.9,291.4,364.2,288.1,374.4,281.4z"/>
		<path class="st2" d="M460.2,298.8c-12.7-4.2-22.6-9.6-29.8-16.1l7.7-13.4c7.1,6,16.3,11,27.6,15.1s23,6,35.3,6
			c17.6,0,30.6-2.9,39-8.7c8.4-5.8,12.5-13.8,12.5-24.1c0-7.4-2.3-13.2-6.9-17.4c-4.6-4.2-10.2-7.4-16.9-9.4
			c-6.7-2-15.9-4.1-27.8-6.4c-13.8-2.5-25-5.1-33.5-8c-8.5-2.9-15.7-7.6-21.7-14c-6-6.5-9-15.4-9-26.8c0-13.8,5.7-25.3,17.2-34.3
			c11.5-9,27.8-13.6,49-13.6c11.1,0,22.2,1.6,33.1,4.7c10.9,3.1,19.8,7.3,26.8,12.4l-7.7,13.4c-7.1-5.1-15.3-9-24.4-11.7
			c-9.1-2.7-18.5-4-28.1-4c-16.3,0-28.6,3-36.8,9c-8.3,6-12.4,13.9-12.4,23.7c0,7.8,2.3,13.9,7,18.2c4.7,4.4,10.4,7.6,17.2,9.7
			s16.3,4.4,28.6,6.9c13.6,2.5,24.6,5.1,33,7.9c8.4,2.8,15.4,7.3,21.2,13.5c5.8,6.3,8.7,14.8,8.7,25.8c0,14.5-6,26.1-18.1,34.8
			c-12,8.7-29,13.1-50.8,13.1C486.3,305.2,472.9,303,460.2,298.8z"/>
		<path class="st2" d="M760.4,129.2l-89.7,198.4c-6.7,15.4-14.4,26.3-23.2,32.8c-8.8,6.5-19.2,9.7-31.3,9.7c-8,0-15.6-1.3-22.6-4
			c-7-2.7-13-6.6-17.9-11.7l8.4-12.7c8.9,9.1,19.7,13.7,32.5,13.7c8.5,0,15.7-2.3,21.7-7c6-4.7,11.6-12.7,16.7-24.1l9.4-21.1
			l-78.6-174h17.7l69.9,156.2l69.9-156.2H760.4z"/>
	</g>
	<g>
		<path class="st2" d="M823.6,294.6c-15.3-7.9-27.2-18.9-35.8-32.9c-8.6-14.1-12.9-30-12.9-47.8c0-17.8,4.3-33.8,12.9-47.8
			c8.6-14.1,20.5-25,35.8-33c15.3-7.9,32.5-11.9,51.7-11.9c19,0,35.5,4,49.7,11.9c14.2,7.9,24.5,19.2,30.9,34l-40.5,21.7
			c-9.4-16.5-22.9-24.8-40.5-24.8c-13.6,0-24.9,4.5-33.8,13.4c-8.9,8.9-13.4,21.1-13.4,36.5s4.5,27.5,13.4,36.5
			c8.9,8.9,20.2,13.4,33.8,13.4c17.8,0,31.3-8.3,40.5-24.8l40.5,22.1c-6.5,14.3-16.8,25.4-30.9,33.5c-14.2,8-30.7,12-49.7,12
			C856.1,306.5,838.9,302.5,823.6,294.6z"/>
		<path class="st2" d="M1016.2,294.6c-15.1-7.9-26.8-18.9-35.3-32.9c-8.5-14.1-12.7-30-12.7-47.8c0-17.8,4.2-33.8,12.7-47.8
			c8.5-14.1,20.2-25,35.3-33c15.1-7.9,32.1-11.9,51-11.9c19,0,35.9,4,50.9,11.9c14.9,7.9,26.6,18.9,35.1,33
			c8.5,14,12.7,30,12.7,47.8c0,17.8-4.2,33.8-12.7,47.8c-8.5,14.1-20.2,25-35.1,32.9c-14.9,7.9-31.9,11.9-50.9,11.9
			C1048.3,306.5,1031.2,302.5,1016.2,294.6z M1100.2,250.1c8.6-9,12.9-21.1,12.9-36.3c0-15.2-4.3-27.3-12.9-36.3
			c-8.6-9-19.6-13.5-33-13.5c-13.4,0-24.4,4.5-33.1,13.5c-8.7,9-13,21.1-13,36.3c0,15.2,4.4,27.3,13,36.3c8.7,9,19.7,13.6,33.1,13.6
			C1080.6,263.7,1091.6,259.2,1100.2,250.1z"/>
		<path class="st2" d="M1294.1,130.2v39.1c-28.9-0.4-38.4,3.5-46.8,11.9c-8.5,8.4-12.7,20.9-12.7,37.6v85h-52.2V128.4l49.8-4.6v26.4
			C1238.4,141.6,1255.9,128.4,1294.1,130.2z"/>
		<path class="st2" d="M1626.7,228.5h-136.2c2.5,11.2,8.3,20,17.4,26.4c9.1,6.5,20.5,9.7,34.1,9.7c9.4,0,17.7-1.4,24.9-4.2
			c7.2-2.8,14-7.2,20.2-13.2l27.8,30.1c-17,19.4-41.7,29.1-74.3,29.1c-20.3,0-38.3-4-53.9-11.9c-15.6-7.9-27.7-18.9-36.1-32.9
			c-8.5-14.1-12.7-30-12.7-47.8c0-17.6,4.2-33.5,12.6-47.7c8.4-14.2,19.8-25.2,34.5-33.1c14.6-7.9,30.9-11.9,49-11.9
			c17.6,0,33.6,3.8,47.8,11.4c14.3,7.6,25.5,18.5,33.6,32.6c8.1,14.2,12.2,30.6,12.2,49.3C1627.7,215.2,1627.4,219.8,1626.7,228.5z
			 M1504.6,170.7c-8,6.7-12.9,15.8-14.7,27.4h88.7c-1.8-11.4-6.7-20.5-14.7-27.3c-8-6.8-17.8-10.2-29.4-10.2
			C1522.6,160.6,1512.6,164,1504.6,170.7z"/>
		<path class="st2" d="M1807.6,141.2c13.7,13.4,20.6,33.2,20.6,59.5v103H1776v-95c0-14.3-3.1-24.9-9.4-32
			c-6.2-7-15.3-10.5-27.1-10.5c-13.2,0-23.6,4.1-31.5,12.2c-7.8,8.1-11.7,20.2-11.7,36.3v89h-52.2v-180h49.8v21.1
			c6.9-7.6,15.5-13.4,25.8-17.6c10.3-4.1,21.5-6.2,33.8-6.2C1775.8,121.1,1793.8,127.8,1807.6,141.2z"/>
		<path class="st2" d="M1430.3,274.1c-2.1-3.5-4-7.2-5.7-10.9c-3.6,1.2-7.5,1.8-11.8,1.8c-7.1,0-12.7-2.1-16.6-6.2
			c-3.9-4.1-5.9-10-5.9-17.6V168h32.6c2-4.9,4.4-9.6,7.1-14.2c5.1-8.6,11.1-16.2,17.9-23h-57.6V84l-52.2,4.6v42.2h-27.8V168h27.8
			v73.9c0,21.2,5.9,37.3,17.6,48.2c11.7,10.9,28.3,16.4,49.7,16.4c8.3,0,16.1-1,23.6-2.8c7.2-1.8,13.3-4.6,18.3-8.2
			C1440.8,289.1,1435.1,282,1430.3,274.1z"/>
	</g>
</g>
</svg>
